<svg width="26" height="26" viewBox="0 0 26 26" fill="none" xmlns="http://www.w3.org/2000/svg">
<path fill-rule="evenodd" clip-rule="evenodd" d="M8.04417 1.85875C10.5225 -0.619589 14.5408 -0.619577 17.0191 1.85875L23.2045 8.04416C25.6829 10.5225 25.6829 14.5408 23.2045 17.0191L17.0191 23.2045C14.5408 25.6829 10.5225 25.6829 8.04417 23.2045L1.85875 17.0191C-0.619577 14.5408 -0.619589 10.5225 1.85875 8.04416L8.04417 1.85875ZM16.4766 8.58669C14.2979 6.40798 10.7654 6.40797 8.5867 8.58669C6.40797 10.7654 6.40798 14.2978 8.5867 16.4766C10.7654 18.6553 14.2979 18.6553 16.4766 16.4766C18.6553 14.2978 18.6553 10.7654 16.4766 8.58669Z" fill="white"/>
</svg>
