<svg width="90" height="28" viewBox="0 0 90 28" fill="none" xmlns="http://www.w3.org/2000/svg">
<path d="M78.4067 27.1013V11.0541H80.3935L80.5571 13.0486C80.9311 12.278 81.4842 11.7038 82.2166 11.3261C82.9646 10.9332 83.7904 10.7368 84.6942 10.7368C85.785 10.7368 86.7277 10.9861 87.5224 11.4847C88.3171 11.9682 88.9248 12.6482 89.3455 13.5246C89.7818 14.3859 90 15.3832 90 16.5165C90 17.6497 89.7896 18.6621 89.3689 19.5536C88.9638 20.4451 88.3638 21.1478 87.5691 21.6615C86.79 22.1753 85.8317 22.4322 84.6942 22.4322C83.7748 22.4322 82.9568 22.2508 82.24 21.8882C81.5232 21.5255 80.9778 21.0042 80.6038 20.3243V27.1013H78.4067ZM80.6272 16.6071C80.6272 17.3475 80.7675 18.0199 81.0479 18.6244C81.344 19.2137 81.7569 19.6745 82.2867 20.0069C82.8321 20.3394 83.4788 20.5056 84.2267 20.5056C84.9747 20.5056 85.6136 20.3394 86.1434 20.0069C86.6732 19.6594 87.0783 19.191 87.3588 18.6017C87.6549 18.0124 87.8029 17.3475 87.8029 16.6071C87.8029 15.8365 87.6549 15.1565 87.3588 14.5672C87.0783 13.9779 86.6732 13.5171 86.1434 13.1846C85.6136 12.8522 84.9747 12.686 84.2267 12.686C83.4788 12.686 82.8321 12.8522 82.2867 13.1846C81.7569 13.5171 81.344 13.9779 81.0479 14.5672C80.7675 15.1565 80.6272 15.8365 80.6272 16.6071Z" fill="white"/>
<path d="M70.6703 22.4095C69.5639 22.4095 68.5822 22.1677 67.7252 21.6842C66.8682 21.1856 66.1981 20.5056 65.7151 19.6443C65.232 18.7679 64.9905 17.7555 64.9905 16.6071C64.9905 15.4436 65.2242 14.4237 65.6917 13.5473C66.1748 12.6709 66.8292 11.9834 67.6551 11.4847C68.4965 10.9861 69.4704 10.7368 70.5768 10.7368C71.6675 10.7368 72.6103 10.9634 73.405 11.4167C74.2153 11.87 74.8386 12.5047 75.2749 13.3206C75.7267 14.1366 75.9527 15.0961 75.9527 16.1991V16.9924L66.1592 17.0151L66.2059 15.5872H73.7556C73.7556 14.6654 73.4673 13.925 72.8908 13.366C72.3142 12.8069 71.5429 12.5273 70.5768 12.5273C69.8444 12.5273 69.2133 12.686 68.6835 13.0033C68.1693 13.3055 67.772 13.7588 67.4915 14.3632C67.2266 14.9525 67.0941 15.6627 67.0941 16.4938C67.0941 17.8235 67.4058 18.851 68.0291 19.5763C68.6524 20.2865 69.5483 20.6416 70.717 20.6416C71.5741 20.6416 72.2753 20.4754 72.8206 20.1429C73.366 19.8105 73.7322 19.327 73.9192 18.6923H75.9761C75.6956 19.871 75.0957 20.7851 74.1763 21.4349C73.2569 22.0846 72.0883 22.4095 70.6703 22.4095Z" fill="white"/>
<path d="M58.002 22.4095C56.8956 22.4095 55.914 22.1677 55.0569 21.6842C54.1999 21.1856 53.5299 20.5056 53.0468 19.6443C52.5638 18.7679 52.3222 17.7555 52.3222 16.6071C52.3222 15.4436 52.556 14.4237 53.0234 13.5473C53.5065 12.6709 54.1609 11.9834 54.9868 11.4847C55.8283 10.9861 56.8022 10.7368 57.9085 10.7368C58.9993 10.7368 59.942 10.9634 60.7367 11.4167C61.547 11.87 62.1703 12.5047 62.6066 13.3206C63.0585 14.1366 63.2844 15.0961 63.2844 16.1991V16.9924L53.4909 17.0151L53.5377 15.5872H61.0873C61.0873 14.6654 60.799 13.925 60.2225 13.366C59.6459 12.8069 58.8746 12.5273 57.9085 12.5273C57.1761 12.5273 56.545 12.686 56.0152 13.0033C55.501 13.3055 55.1037 13.7588 54.8232 14.3632C54.5583 14.9525 54.4258 15.6627 54.4258 16.4938C54.4258 17.8235 54.7375 18.851 55.3608 19.5763C55.9841 20.2865 56.8801 20.6416 58.0487 20.6416C58.9058 20.6416 59.607 20.4754 60.1524 20.1429C60.6977 19.8105 61.0639 19.327 61.2509 18.6923H63.3078C63.0273 19.871 62.4274 20.7851 61.508 21.4349C60.5887 22.0846 59.42 22.4095 58.002 22.4095Z" fill="white"/>
<path d="M49.8359 22.1375H47.6388V5.45569H49.8359V22.1375Z" fill="white"/>
<path d="M35.3286 5.75034V22.1375H33.038V5.75034H35.3286ZM39.6761 14.9072H34.6975V12.9806H39.4891C40.4396 12.9806 41.172 12.7464 41.6862 12.278C42.2004 11.8096 42.4575 11.1447 42.4575 10.2834C42.4575 9.46748 42.1848 8.8404 41.6394 8.4022C41.1096 7.94889 40.3461 7.72224 39.3488 7.72224H34.3001V5.75034H39.4891C41.1408 5.75034 42.4341 6.13565 43.3691 6.90628C44.3196 7.67691 44.7949 8.73463 44.7949 10.0795C44.7949 11.0918 44.5378 11.938 44.0235 12.618C43.5249 13.2828 42.7847 13.7664 41.803 14.0686V13.7739C42.8938 14.0308 43.7119 14.4992 44.2573 15.1792C44.8182 15.844 45.0987 16.7053 45.0987 17.7631C45.0987 18.6697 44.8806 19.4554 44.4443 20.1203C44.0235 20.77 43.408 21.2687 42.5977 21.6162C41.7875 21.9637 40.8292 22.1375 39.7228 22.1375H34.3001V20.1656H39.6761C40.6577 20.1656 41.4135 19.9314 41.9433 19.463C42.4731 18.9946 42.738 18.3373 42.738 17.4911C42.738 16.6751 42.4653 16.0405 41.9199 15.5872C41.3901 15.1339 40.6422 14.9072 39.6761 14.9072Z" fill="white"/>
<path fill-rule="evenodd" clip-rule="evenodd" d="M8.04417 2.75743C10.5225 0.279092 14.5408 0.279105 17.0191 2.75743L23.2045 8.94285C25.6829 11.4212 25.6829 15.4394 23.2045 17.9178L17.0191 24.1032C14.5408 26.5816 10.5225 26.5816 8.04417 24.1032L1.85875 17.9178C-0.619577 15.4394 -0.619589 11.4212 1.85875 8.94285L8.04417 2.75743ZM16.4766 9.48538C14.2979 7.30666 10.7654 7.30665 8.5867 9.48538C6.40797 11.6641 6.40798 15.1965 8.5867 17.3753C10.7654 19.554 14.2979 19.554 16.4766 17.3753C18.6553 15.1965 18.6553 11.6641 16.4766 9.48538Z" fill="white"/>
</svg>
