<svg width="695" height="402" viewBox="0 0 695 402" fill="none" xmlns="http://www.w3.org/2000/svg">
<path d="M19.2322 190.474L365.642 390.474M37.4644 179.947L383.875 379.947M55.6964 169.421L402.107 369.421M73.9286 158.895L420.339 358.895M92.1606 148.368L438.571 348.368M110.393 137.842L456.803 337.842M128.625 127.316L475.035 327.316M146.857 116.789L493.267 316.789M165.089 106.263L511.499 306.263M183.321 95.7368L529.731 295.737M201.553 85.2104L547.964 285.21M219.785 74.6842L566.196 274.684M238.018 64.1578L584.428 264.158M256.25 53.6316L602.66 253.632M274.482 43.1052L620.892 243.105M292.714 32.5789L639.124 232.579M310.946 22.0526L657.356 222.053M329.178 11.5262L675.588 211.526M329.178 390.474L675.588 190.474M310.946 379.947L657.356 179.947M292.714 369.421L639.124 169.421M274.482 358.895L620.892 158.895M256.25 348.368L602.66 148.368M238.017 337.842L584.428 137.842M219.785 327.316L566.196 127.316M201.553 316.789L547.963 116.789M183.321 306.263L529.731 106.263M165.089 295.737L511.499 95.7368M146.857 285.211L493.267 85.2105M128.625 274.684L475.035 74.6842M110.393 264.158L456.803 64.1579M92.1606 253.632L438.571 53.6316M73.9285 243.105L420.339 43.1053M55.6963 232.579L402.107 32.5789M37.4642 222.053L383.874 22.0526M19.2321 211.526L365.642 11.5263M1 201L347.41 401L693.82 201L347.41 1L1 201Z" stroke="url(#paint0_radial_23_596)"/>
<defs>
<radialGradient id="paint0_radial_23_596" cx="0" cy="0" r="1" gradientUnits="userSpaceOnUse" gradientTransform="translate(347.41 201) rotate(90) scale(200 346.41)">
<stop stop-color="#252525" stop-opacity="0"/>
<stop offset="0.52634" stop-color="#8B8B8B" stop-opacity="0.15"/>
<stop offset="0.74365" stop-color="#8B8B8B" stop-opacity="0"/>
</radialGradient>
</defs>
</svg>
