<svg width="220" height="170" viewBox="0 0 220 170" fill="none" xmlns="http://www.w3.org/2000/svg">
<path fill-rule="evenodd" clip-rule="evenodd" d="M179 102.586C179.023 101.594 178.395 100.607 177.114 99.8674L151.511 85.086C147.62 82.2326 146.015 80.1762 146.004 78.6448V92.2085C146.015 93.7399 147.62 95.7962 151.511 98.6497L177.114 113.431C178.395 114.171 179.023 115.157 179 116.149V102.586Z" fill="#D9D9D9" fill-opacity="0.1" stroke="#242424" stroke-width="1.5" stroke-linejoin="round"/>
<path fill-rule="evenodd" clip-rule="evenodd" d="M146.004 78.6448C145.982 75.3905 153.162 74.5067 160.914 73.3823C170.836 71.9429 175.154 68.1338 175.576 63.9978V77.5615C175.154 81.6975 170.836 85.5066 160.914 86.946C153.162 88.0704 145.982 88.9542 146.004 92.2085V78.6448Z" fill="#D9D9D9" fill-opacity="0.1" stroke="#242424" stroke-width="1.5" stroke-linejoin="round"/>
<path fill-rule="evenodd" clip-rule="evenodd" d="M175.576 63.9977C176.326 56.6448 164.763 48.2585 150.488 50.316C132.984 52.8388 139.538 62.0934 130.361 66.0463C126.81 67.5702 121.408 66.9347 115.782 64.4703L97.2881 53.7925C94.7141 52.3065 90.4549 52.3437 87.8155 53.8675L65.7612 66.6006C45.308 75.8163 51.6721 60.8281 42.552 55.5626C35.2428 51.3308 22.4964 51.8404 14.0923 56.6925C9.39185 59.4064 6.76763 63.0695 6.65375 66.5097V80.0734C6.76763 76.6331 9.39185 72.97 14.0923 70.2562C22.4964 65.4041 35.2428 64.8945 42.552 69.1263C51.6721 74.3918 45.308 89.38 65.7612 80.1643L87.8155 67.4312C90.4549 65.9074 94.7141 65.8701 97.2881 67.3562L115.782 78.034C121.408 80.4984 126.81 81.1338 130.361 79.61C139.538 75.6571 132.984 66.4025 150.488 63.8797C164.763 61.8221 176.326 70.2085 175.576 77.5614V63.9977Z" fill="#D9D9D9" fill-opacity="0.1" stroke="#242424" stroke-width="1.5" stroke-linejoin="round"/>
<path fill-rule="evenodd" clip-rule="evenodd" d="M6.65377 66.5098C6.56429 69.2128 8.02456 71.7783 11.2451 73.6377C17.7819 77.4117 34.9696 76.181 35.7246 80.6211V94.1848C34.9696 89.7447 17.7819 90.9754 11.2451 87.2014C8.02456 85.342 6.56429 82.7765 6.65377 80.0734V66.5098Z" fill="#D9D9D9" fill-opacity="0.1" stroke="#242424" stroke-width="1.5" stroke-linejoin="round"/>
<path fill-rule="evenodd" clip-rule="evenodd" d="M35.7245 80.6211C35.963 82.0232 34.5627 83.9908 30.6707 86.8601L3.02031 102.824C1.70085 103.586 1.02495 104.582 1.00067 105.573V119.136C1.02495 118.145 1.70085 117.15 3.02031 116.388L30.6707 100.424C34.5627 97.5545 35.963 95.5869 35.7245 94.1848V80.6211Z" fill="#D9D9D9" fill-opacity="0.1" stroke="#242424" stroke-width="1.5" stroke-linejoin="round"/>
<path fill-rule="evenodd" clip-rule="evenodd" d="M1.00068 105.573C0.976395 106.564 1.60372 107.55 2.8907 108.293L21.3427 118.946C30.6229 122.676 37.9133 120.571 39.7282 113.53C40.3332 111.15 42.2736 107.669 45.1563 106.005C52.6704 101.666 65.3953 101.964 73.5622 106.679C78.299 109.414 81.0713 113.382 81.0964 117.08V130.644C81.0713 126.946 78.299 122.978 73.5622 120.243C65.3953 115.528 52.6704 115.23 45.1563 119.568C42.2736 121.233 40.3332 124.714 39.7282 127.093C37.9133 134.135 30.6229 136.24 21.3427 132.51L2.8907 121.857C1.60372 121.114 0.976395 120.127 1.00068 119.136V105.573Z" fill="#D9D9D9" fill-opacity="0.1" stroke="#242424" stroke-width="1.5" stroke-linejoin="round"/>
<path fill-rule="evenodd" clip-rule="evenodd" d="M81.0965 117.08C81.1146 119.758 79.6922 122.295 76.5318 124.119C73.8505 125.667 70.5016 126.622 66.9095 126.996V140.559C70.5016 140.186 73.8505 139.231 76.5318 137.683C79.6922 135.858 81.1146 133.322 81.0965 130.644V117.08Z" fill="#D9D9D9" fill-opacity="0.1" stroke="#242424" stroke-width="1.5" stroke-linejoin="round"/>
<path fill-rule="evenodd" clip-rule="evenodd" d="M66.9096 126.996C67.4096 127.284 51.3436 127.72 51.1226 133.056V146.62C51.3436 141.284 67.4096 140.848 66.9096 140.559V126.996Z" fill="#D9D9D9" fill-opacity="0.1" stroke="#242424" stroke-width="1.5" stroke-linejoin="round"/>
<path fill-rule="evenodd" clip-rule="evenodd" d="M51.1224 133.056C51.0672 134.39 52.0022 136.031 54.434 138.051L82.7262 154.386C85.3002 155.872 89.5597 155.835 92.1987 154.311C107.004 145.763 121.789 137.228 136.573 128.679V142.243C121.789 150.791 107.004 159.327 92.1987 167.875C89.5597 169.399 85.3002 169.436 82.7262 167.95L54.434 151.615C52.0022 149.594 51.0672 147.954 51.1224 146.62V133.056Z" fill="#D9D9D9" fill-opacity="0.1" stroke="#242424" stroke-width="1.5" stroke-linejoin="round"/>
<path fill-rule="evenodd" clip-rule="evenodd" d="M136.573 128.68C134.455 126.784 129.465 126.093 125.004 125.574C116.575 124.59 113.187 121.96 113.042 118.832V132.396C113.187 135.523 116.575 138.154 125.004 139.138C129.465 139.657 134.455 140.347 136.573 142.243V128.68Z" fill="#D9D9D9" fill-opacity="0.1" stroke="#242424" stroke-width="1.5" stroke-linejoin="round"/>
<path fill-rule="evenodd" clip-rule="evenodd" d="M113.042 118.832C112.584 108.928 144.648 94.0383 152.146 110.662C152.633 111.739 153.088 112.797 153.67 113.745C154.39 114.932 155.64 116.167 157.038 116.864L176.984 105.337C178.303 104.575 178.976 103.578 178.999 102.586V116.149C178.976 117.141 178.303 118.139 176.984 118.9L157.038 130.428C155.64 129.731 154.39 128.495 153.67 127.309C153.088 126.361 152.633 125.302 152.146 124.226C144.648 107.602 112.584 122.492 113.042 132.396V118.832Z" fill="#D9D9D9" fill-opacity="0.1" stroke="#242424" stroke-width="1.5" stroke-linejoin="round"/>
<path d="M150.596 51.0586C161.527 49.4832 170.679 54.1819 173.751 59.5186C175.26 62.1401 175.292 64.8587 173.461 67.1738C171.638 69.4792 167.867 71.5199 161.438 72.5439L160.807 72.6396C157.968 73.0513 155.168 73.4356 152.776 73.9189C150.409 74.3974 148.321 74.9938 146.966 75.8828C146.277 76.3346 145.713 76.904 145.436 77.6338C145.151 78.3813 145.209 79.1871 145.556 80.0166C146.221 81.6097 148.022 83.4569 151.067 85.6904L151.101 85.7148L151.136 85.7354L176.738 100.517C177.873 101.172 178.265 101.941 178.25 102.568C178.236 103.167 177.848 103.904 176.822 104.558L176.608 104.687V104.688L157.025 116.004C155.982 115.398 155.042 114.472 154.439 113.559L154.312 113.355L154.31 113.353L154.107 113.011C153.649 112.203 153.264 111.315 152.829 110.354H152.83C150.2 104.521 144.728 102.384 138.798 102.438C132.885 102.491 126.378 104.708 121.32 107.734C118.788 109.25 116.587 110.987 114.994 112.79C113.414 114.58 112.365 116.512 112.292 118.409C112.216 120.374 113.19 122.13 115.273 123.487C117.195 124.739 120.088 125.677 124.1 126.216L124.918 126.318C127.149 126.578 129.474 126.878 131.499 127.342C132.994 127.684 134.254 128.103 135.179 128.618C128.126 132.696 121.074 136.771 114.019 140.846L91.8242 153.662C90.6426 154.344 89.0518 154.714 87.4316 154.728C85.9117 154.74 84.4391 154.437 83.3203 153.856L83.1016 153.736L54.8682 137.437C53.4162 136.223 52.5847 135.203 52.1807 134.364C51.7853 133.544 51.8069 132.921 52.0293 132.413C52.2671 131.87 52.7846 131.343 53.5938 130.849C54.3959 130.359 55.4203 129.941 56.5674 129.587C58.8613 128.879 61.5282 128.461 63.6084 128.198C64.6492 128.067 65.5213 127.977 66.1406 127.905C66.4407 127.87 66.6975 127.838 66.8721 127.807C66.9415 127.794 67.0682 127.77 67.1807 127.724C67.1847 127.722 67.1886 127.719 67.1934 127.717C70.556 127.346 73.7332 126.473 76.375 125.063L76.9062 124.769C78.8931 123.621 80.2764 122.18 81.0654 120.552C81.8558 118.921 82.0273 117.149 81.666 115.388C80.9702 111.996 78.3143 108.672 74.3271 106.261L73.9375 106.03C69.7237 103.597 64.3713 102.321 59.1318 102.197C54.0601 102.077 49.0156 103.036 45.1514 105.147L44.7812 105.355C41.6736 107.15 39.6407 110.832 39.002 113.343C38.1592 116.612 36.0751 118.693 33.124 119.558C30.1399 120.432 26.1936 120.079 21.665 118.267L3.26562 107.644C2.12448 106.985 1.73469 106.215 1.75 105.591C1.76466 104.994 2.15463 104.258 3.18164 103.604L3.39551 103.474L31.0459 87.5098L31.082 87.4883L31.1162 87.4639C33.165 85.9534 34.5834 84.6532 35.4434 83.5156C36.2951 82.3888 36.6952 81.2871 36.4092 80.249C36.1274 79.2272 35.2532 78.5414 34.2441 78.0557C33.2161 77.5608 31.8854 77.1939 30.415 76.8926C27.4923 76.2936 23.7321 75.9046 20.3037 75.376C17.0195 74.8695 14.0297 74.2349 12.0107 73.2002L11.6201 72.9883C8.18341 71.0041 7.00477 68.2692 7.51367 65.5352C8.02054 62.8124 10.2361 59.8902 14.0889 57.5654L14.4678 57.3418C18.5464 54.9871 23.7109 53.6717 28.7627 53.4707C33.6636 53.2757 38.378 54.1323 41.8447 56.0254L42.1758 56.2119H42.1768C44.2764 57.4241 45.5051 59.2017 46.4795 61.1416C46.9714 62.121 47.3844 63.1103 47.8252 64.1035C48.2589 65.0807 48.7167 66.0538 49.2773 66.9199C50.4269 68.6958 52.0246 70.0381 54.7295 70.252C57.346 70.4588 60.9264 69.6014 66.0693 67.2842L66.1035 67.2686L66.1357 67.25L88.1904 54.5166C89.3722 53.8344 90.9622 53.4645 92.582 53.4512C94.1022 53.4387 95.5754 53.7412 96.6943 54.3223L96.9131 54.4424L115.407 65.1201L115.443 65.1406L115.481 65.1572C120.999 67.5748 126.469 68.334 130.292 66.8828L130.656 66.7354H130.657C135.555 64.6259 136.359 60.9522 137.961 58.0029C138.769 56.5153 139.802 55.1087 141.656 53.9121C143.409 52.7811 145.943 51.8088 149.805 51.1797L150.596 51.0586Z" fill="url(#paint0_linear_71_11)" fill-opacity="0.3" stroke="#A2A2A2" stroke-width="1.5"/>
<g filter="url(#filter0_f_71_11)">
<path d="M168.69 3L169.034 51.3453L217.379 51.6896L169.034 52.0339L168.69 100.379L168.345 52.0339L120 51.6896L168.345 51.3453L168.69 3Z" fill="white"/>
</g>
<path d="M168.69 3L169.034 51.3453L217.379 51.6896L169.034 52.0339L168.69 100.379L168.345 52.0339L120 51.6896L168.345 51.3453L168.69 3Z" fill="url(#paint1_radial_71_11)"/>
<path d="M168.689 39.6379L169.153 46.4634C169.327 49.0183 171.361 51.0523 173.916 51.2259L180.741 51.6898L173.916 52.1537C171.361 52.3274 169.327 54.3613 169.153 56.9162L168.689 63.7417L168.225 56.9162C168.052 54.3613 166.018 52.3274 163.463 52.1537L156.638 51.6898L163.463 51.2259C166.018 51.0523 168.052 49.0183 168.225 46.4634L168.689 39.6379Z" fill="white"/>
<g filter="url(#filter1_f_71_11)">
<path d="M168.689 29.9961L169.767 45.8495C169.941 48.4044 171.975 50.4384 174.529 50.612L190.383 51.6895L174.529 52.7669C171.975 52.9406 169.941 54.9746 169.767 57.5295L168.689 73.3828L167.612 57.5295C167.438 54.9746 165.404 52.9406 162.849 52.7669L146.996 51.6895L162.849 50.612C165.404 50.4384 167.438 48.4044 167.612 45.8495L168.689 29.9961Z" fill="white"/>
</g>
<g filter="url(#filter2_f_71_11)">
<path d="M168.689 42.5302L168.969 46.6472C169.143 49.2021 171.177 51.2361 173.732 51.4098L177.849 51.6896L173.732 51.9694C171.177 52.143 169.143 54.177 168.969 56.7319L168.689 60.849L168.41 56.7319C168.236 54.177 166.202 52.143 163.647 51.9694L159.53 51.6896L163.647 51.4098C166.202 51.2361 168.236 49.2021 168.41 46.6472L168.689 42.5302Z" fill="white"/>
</g>
<defs>
<filter id="filter0_f_71_11" x="117.439" y="0.439205" width="102.501" height="102.501" filterUnits="userSpaceOnUse" color-interpolation-filters="sRGB">
<feFlood flood-opacity="0" result="BackgroundImageFix"/>
<feBlend mode="normal" in="SourceGraphic" in2="BackgroundImageFix" result="shape"/>
<feGaussianBlur stdDeviation="1.2804" result="effect1_foregroundBlur_71_11"/>
</filter>
<filter id="filter1_f_71_11" x="145.78" y="28.7797" width="45.8195" height="45.8195" filterUnits="userSpaceOnUse" color-interpolation-filters="sRGB">
<feFlood flood-opacity="0" result="BackgroundImageFix"/>
<feBlend mode="normal" in="SourceGraphic" in2="BackgroundImageFix" result="shape"/>
<feGaussianBlur stdDeviation="0.608189" result="effect1_foregroundBlur_71_11"/>
</filter>
<filter id="filter2_f_71_11" x="153.704" y="36.7043" width="29.9705" height="29.9705" filterUnits="userSpaceOnUse" color-interpolation-filters="sRGB">
<feFlood flood-opacity="0" result="BackgroundImageFix"/>
<feBlend mode="normal" in="SourceGraphic" in2="BackgroundImageFix" result="shape"/>
<feGaussianBlur stdDeviation="2.9129" result="effect1_foregroundBlur_71_11"/>
</filter>
<linearGradient id="paint0_linear_71_11" x1="90" y1="50" x2="90" y2="155" gradientUnits="userSpaceOnUse">
<stop stop-color="#D9D9D9"/>
<stop offset="1" stop-color="#737373" stop-opacity="0.2"/>
</linearGradient>
<radialGradient id="paint1_radial_71_11" cx="0" cy="0" r="1" gradientUnits="userSpaceOnUse" gradientTransform="translate(168.69 51.6896) rotate(90) scale(48.6896)">
<stop stop-color="white"/>
<stop offset="0.761209" stop-color="white" stop-opacity="0"/>
</radialGradient>
</defs>
</svg>
